STARTFONT 2.1
FONT -Monotype-Nimrod-Regular-R-Normal--33-240-100-100-P-184-iso8859-5
SIZE 24 100 100
FONTBOUNDINGBOX 38 40 -1 -8

STARTPROPERTIES 24
FOUNDRY "Monotype"
FAMILY_NAME "Nimrod"
WEIGHT_NAME "Regular"
SLANT "R"
SETWIDTH_NAME "Normal"
ADD_STYLE_NAME ""
PIXEL_SIZE 33
POINT_SIZE 240
RESOLUTION_X 100
RESOLUTION_Y 100
SPACING "P"
AVERAGE_WIDTH 184
CHARSET_REGISTRY "iso8859"
CHARSET_ENCODING "5"
FACE_NAME "Nimrod ISO Latin Cyrillic"
_DEC_DEVICE_FONTNAMES "PS=nimrod-latcyrillic"
COPYRIGHT "Copyright (c) 1993 Monotype Typography Ltd."
CAP_HEIGHT 29
X_HEIGHT 21
WEIGHT 10
QUAD_WIDTH 22
DEFAULT_CHAR 160
FONT_DESCENT 8
FONT_ASCENT 32
ENDPROPERTIES

CHARS 191

STARTCHAR space
ENCODING 32
SWIDTH 250 0
DWIDTH 8 0
BBX 0 0 0 0
BITMAP
ENDCHAR

STARTCHAR exclam
ENCODING 33
SWIDTH 281 0
DWIDTH 9 0
BBX 4 25 2 0
BITMAP
60
F0
F0
F0
F0
F0
70
70
60
60
20
20
20
20
20
20
20
00
00
00
00
F0
F0
F0
F0
ENDCHAR

STARTCHAR quotedbl
ENCODING 34
SWIDTH 406 0
DWIDTH 13 0
BBX 9 9 2 13
BITMAP
E380
E380
E380
E380
E380
C380
4100
4100
4100
ENDCHAR

STARTCHAR numbersign
ENCODING 35
SWIDTH 667 0
DWIDTH 22 0
BBX 19 22 2 0
BITMAP
030180
020100
020300
060300
060300
060200
FFFFE0
FFFFE0
0C0600
0C0600
0C0400
080C00
180C00
180C00
FFFFE0
FFFFE0
101800
301800
301800
301800
301000
603000
ENDCHAR

STARTCHAR dollar
ENCODING 36
SWIDTH 500 0
DWIDTH 17 0
BBX 15 30 1 -5
BITMAP
0300
0300
1FE0
3B70
7318
631C
E31C
E33C
E338
7300
7B00
3F00
1FC0
0FE0
03F8
037C
033C
631E
F30E
F30E
E30E
E30C
631C
3338
1FF0
0780
0300
0300
0300
0300
ENDCHAR

STARTCHAR percent
ENCODING 37
SWIDTH 1000 0
DWIDTH 33 0
BBX 24 25 4 -1
BITMAP
1E0030
330020
618040
61C040
E1C080
E1C180
E1C100
E1C300
E1C200
618400
618400
330800
1E0878
0010E6
0030C6
0021C7
0061C7
0041C7
00C1C7
0081C7
0181C7
0100C6
0200EE
060038
040000
ENDCHAR

STARTCHAR ampersand
ENCODING 38
SWIDTH 781 0
DWIDTH 26 0
BBX 23 25 2 0
BITMAP
00F000
03F800
070C00
060E00
0E0E00
0E0E00
0E0C00
0F1C00
073800
03E000
078000
1FC3FE
39C0F8
71E070
60E060
E0F060
E078C0
E07CC0
E03D80
F01F02
F00F06
780F86
7E1BFC
3FF1FC
0FC070
ENDCHAR

STARTCHAR quoteright
ENCODING 39
SWIDTH 281 0
DWIDTH 9 0
BBX 5 9 2 16
BITMAP
70
F8
F8
78
18
10
30
60
C0
ENDCHAR

STARTCHAR parenleft
ENCODING 40
SWIDTH 354 0
DWIDTH 12 0
BBX 9 31 1 -6
BITMAP
0080
0180
0700
0600
0C00
1C00
3800
3800
7000
7000
7000
F000
E000
E000
E000
E000
E000
E000
F000
F000
7000
7000
3000
3800
1800
0C00
0E00
0600
0300
0180
0080
ENDCHAR

STARTCHAR parenright
ENCODING 41
SWIDTH 354 0
DWIDTH 12 0
BBX 9 31 1 -6
BITMAP
8000
6000
3000
3800
1800
0C00
0E00
0E00
0700
0700
0780
0380
0380
0380
0380
0380
0380
0380
0380
0780
0700
0700
0600
0E00
0C00
1C00
1800
3000
6000
C000
8000
ENDCHAR

STARTCHAR asterisk
ENCODING 42
SWIDTH 469 0
DWIDTH 15 0
BBX 13 13 1 12
BITMAP
0700
0700
0700
0700
E238
F2F8
FFF8
0200
0D80
1DC0
3CE0
38E0
3860
ENDCHAR

STARTCHAR plus
ENCODING 43
SWIDTH 667 0
DWIDTH 22 0
BBX 18 18 2 2
BITMAP
00C000
00C000
00C000
00C000
00C000
00C000
00C000
00C000
FFFFC0
FFFFC0
00C000
00C000
00C000
00C000
00C000
00C000
00C000
00C000
ENDCHAR

STARTCHAR comma
ENCODING 44
SWIDTH 281 0
DWIDTH 9 0
BBX 5 9 2 -5
BITMAP
70
F8
F8
78
18
10
30
60
C0
ENDCHAR

STARTCHAR minus
ENCODING 45
SWIDTH 667 0
DWIDTH 22 0
BBX 18 2 2 10
BITMAP
FFFFC0
FFFFC0
ENDCHAR

STARTCHAR period
ENCODING 46
SWIDTH 281 0
DWIDTH 9 0
BBX 4 4 3 0
BITMAP
F0
F0
F0
F0
ENDCHAR

STARTCHAR slash
ENCODING 47
SWIDTH 510 0
DWIDTH 17 0
BBX 15 28 1 -1
BITMAP
0006
000C
000C
0008
0018
0010
0030
0020
0060
0040
00C0
0080
0180
0180
0300
0300
0600
0600
0C00
0C00
1800
1800
3000
3000
6000
6000
C000
C000
ENDCHAR

STARTCHAR zero
ENCODING 48
SWIDTH 500 0
DWIDTH 17 0
BBX 14 24 1 0
BITMAP
0780
1FE0
3870
3030
7038
7038
F01C
E01C
E01C
E01C
E01C
E01C
E01C
E01C
E01C
E01C
E01C
F01C
7038
7038
3030
3870
1FE0
0780
ENDCHAR

STARTCHAR one
ENCODING 49
SWIDTH 500 0
DWIDTH 17 0
BBX 13 24 2 0
BITMAP
0300
0F00
FF00
FF00
0700
0700
0700
0700
0700
0700
0700
0700
0700
0700
0700
0700
0700
0700
0700
0700
0700
0700
0F80
7FF8
ENDCHAR

STARTCHAR two
ENCODING 50
SWIDTH 500 0
DWIDTH 17 0
BBX 15 24 1 0
BITMAP
07C0
1FF0
3078
603C
E03C
F01C
F01C
F01C
703C
003C
0078
0078
00F0
01E0
03C0
0300
0600
0C06
1806
3006
600C
FFFC
FFFC
FFFC
ENDCHAR

STARTCHAR three
ENCODING 51
SWIDTH 500 0
DWIDTH 17 0
BBX 15 24 0 0
BITMAP
07C0
1FF0
3838
303C
701C
781C
381C
101C
0038
0038
04C0
0FE0
0038
001C
001E
000E
700E
F00E
F00E
E01E
601C
7038
1FF0
0780
ENDCHAR

STARTCHAR four
ENCODING 52
SWIDTH 500 0
DWIDTH 17 0
BBX 15 24 1 0
BITMAP
0070
0070
00F0
00F0
01B0
0370
0270
0670
0C70
0C70
1870
3070
3070
6070
4070
8070
FFFE
FFFE
0070
0070
0070
0070
0070
07FE
ENDCHAR

STARTCHAR five
ENCODING 53
SWIDTH 500 0
DWIDTH 17 0
BBX 14 24 1 0
BITMAP
000C
1FF8
3FF8
3FF8
3000
3000
2000
2000
2000
27C0
2FE0
7078
0038
003C
001C
001C
701C
F01C
F01C
E03C
6038
7070
1FE0
0780
ENDCHAR

STARTCHAR six
ENCODING 54
SWIDTH 500 0
DWIDTH 17 0
BBX 14 24 1 0
BITMAP
03E0
0FF8
1C3C
383C
303C
7018
6000
E000
E000
E3C0
EFF0
FC78
F03C
F03C
F01C
E01C
E01C
E01C
701C
703C
3038
1870
1FE0
0780
ENDCHAR

STARTCHAR seven
ENCODING 55
SWIDTH 500 0
DWIDTH 17 0
BBX 15 23 1 0
BITMAP
7FFE
7FFE
7FFC
6008
6018
4010
C030
C030
0020
0060
0060
00C0
00C0
01C0
01C0
0180
0380
0380
0380
0780
0780
0780
0380
ENDCHAR

STARTCHAR eight
ENCODING 56
SWIDTH 500 0
DWIDTH 17 0
BBX 14 25 1 0
BITMAP
0780
3FF0
7878
703C
F01C
E01C
E01C
E01C
703C
7038
3870
07C0
1FE0
7878
703C
F03C
E01C
E01C
E01C
E01C
F03C
7038
3870
1FE0
0780
ENDCHAR

STARTCHAR nine
ENCODING 57
SWIDTH 500 0
DWIDTH 17 0
BBX 14 24 1 0
BITMAP
0780
1FE0
3870
7038
F038
E018
E01C
E01C
E01C
E01C
F03C
703C
78EC
3FDC
0F1C
001C
001C
0018
7018
7038
7070
70E0
3FC0
0F00
ENDCHAR

STARTCHAR colon
ENCODING 58
SWIDTH 281 0
DWIDTH 9 0
BBX 4 18 3 0
BITMAP
F0
F0
F0
F0
00
00
00
00
00
00
00
00
00
00
F0
F0
F0
F0
ENDCHAR

STARTCHAR semicolon
ENCODING 59
SWIDTH 281 0
DWIDTH 9 0
BBX 5 23 2 -5
BITMAP
F0
F0
F0
F0
00
00
00
00
00
00
00
00
00
00
70
F8
F8
78
18
10
30
60
C0
ENDCHAR

STARTCHAR less
ENCODING 60
SWIDTH 667 0
DWIDTH 22 0
BBX 18 16 2 3
BITMAP
000040
0001C0
000F80
003C00
01F000
07C000
1E0000
F80000
E00000
780000
0F0000
03C000
00F800
001E00
000780
0001C0
ENDCHAR

STARTCHAR equal
ENCODING 61
SWIDTH 667 0
DWIDTH 22 0
BBX 18 10 2 6
BITMAP
FFFFC0
FFFFC0
000000
000000
000000
000000
000000
000000
FFFFC0
FFFFC0
ENDCHAR

STARTCHAR greater
ENCODING 62
SWIDTH 667 0
DWIDTH 22 0
BBX 18 16 2 3
BITMAP
800000
E00000
7C0000
1F0000
03C000
00F800
001E00
000780
0001C0
000780
003E00
00F000
07C000
1E0000
780000
E00000
ENDCHAR

STARTCHAR question
ENCODING 63
SWIDTH 448 0
DWIDTH 15 0
BBX 13 25 1 0
BITMAP
1FC0
71E0
6070
F078
F038
F038
F038
0078
0070
00F0
01E0
0180
0300
0200
0600
0600
0600
0000
0000
0000
0000
0F00
0F00
0F00
0F00
ENDCHAR

STARTCHAR at
ENCODING 64
SWIDTH 917 0
DWIDTH 30 0
BBX 28 30 1 -7
BITMAP
000FF000
00700C00
01C00200
03000100
06000080
0C000040
18000040
30039820
300C5820
60183820
60383820
40303020
40603020
C0E07020
C0C06040
C0C06040
C1C0E040
C1C16080
41C2C180
41C4C300
60F8E610
20707830
30000020
10000060
180000C0
0C000180
06000300
03800600
00E03800
001FC000
ENDCHAR

STARTCHAR A
ENCODING 65
SWIDTH 802 0
DWIDTH 26 0
BBX 25 25 1 0
BITMAP
00180000
001C0000
001C0000
003C0000
003E0000
006E0000
006F0000
004F0000
00C70000
00C78000
01838000
0183C000
0103C000
0301C000
0301E000
0600E000
07FFF000
0FFFF000
0C007000
0C007800
18003800
18003C00
38003C00
7C003E00
FF81FF80
ENDCHAR

STARTCHAR B
ENCODING 66
SWIDTH 729 0
DWIDTH 24 0
BBX 21 25 1 0
BITMAP
FFFF80
1E07C0
1E01E0
1E01F0
1E00F0
1E00F0
1E00F0
1E00F0
1E00E0
1E01E0
1E01C0
1E0E80
1FFF00
1E07C0
1E01F0
1E00F0
1E0078
1E0078
1E0078
1E0078
1E0078
1E00F0
1E00F0
1E03E0
FFFF80
ENDCHAR

STARTCHAR C
ENCODING 67
SWIDTH 719 0
DWIDTH 24 0
BBX 21 25 2 0
BITMAP
00FE00
03FFC0
0F03E0
1E00E0
3C0070
3C0070
780030
780030
F80010
F00000
F00000
F00000
F00000
F00000
F00000
F00000
F00018
780018
780010
3C0030
3C0060
1E00E0
0F01C0
03FF00
00FC00
ENDCHAR

STARTCHAR D
ENCODING 68
SWIDTH 771 0
DWIDTH 25 0
BBX 23 25 1 0
BITMAP
FFFF00
1E07C0
1E01E0
1E00F0
1E0078
1E003C
1E003C
1E003E
1E001E
1E001E
1E001E
1E001E
1E001E
1E001E
1E001E
1E001E
1E001E
1E003E
1E003C
1E003C
1E0078
1E0070
1E00F0
1E07C0
FFFF00
ENDCHAR

STARTCHAR E
ENCODING 69
SWIDTH 719 0
DWIDTH 24 0
BBX 20 25 1 0
BITMAP
FFFFE0
1E03E0
1E00E0
1E0060
1E0060
1E0070
1E0030
1E0C30
1E0C30
1E0C00
1E1C00
1E3C00
1FFC00
1E3C00
1E1C00
1E0C00
1E0C10
1E0C10
1E0030
1E0030
1E0030
1E0070
1E00F0
1E03F0
FFFFF0
ENDCHAR

STARTCHAR F
ENCODING 70
SWIDTH 667 0
DWIDTH 22 0
BBX 20 25 2 0
BITMAP
FFFFE0
1E03E0
1E00E0
1E0070
1E0070
1E0030
1E0030
1E0C30
1E0C30
1E0C00
1E1C00
1E3C00
1FFC00
1E3C00
1E1C00
1E0C00
1E0C00
1E0C00
1E0000
1E0000
1E0000
1E0000
1E0000
1E0000
FFE000
ENDCHAR

STARTCHAR G
ENCODING 71
SWIDTH 792 0
DWIDTH 26 0
BBX 24 25 2 0
BITMAP
007F00
03FFE0
0781F0
0E0070
1C0030
3C0038
780018
780018
780018
F00000
F00000
F00000
F00000
F00000
F007FF
F00078
F00078
780078
780078
3C0078
3C0078
1E0078
0F80F8
03FFE0
007E00
ENDCHAR

STARTCHAR H
ENCODING 72
SWIDTH 813 0
DWIDTH 27 0
BBX 25 25 1 0
BITMAP
FFC1FF80
1E003C00
1E003C00
1E003C00
1E003C00
1E003C00
1E003C00
1E003C00
1E003C00
1E003C00
1E003C00
1FFFFC00
1FFFFC00
1E003C00
1E003C00
1E003C00
1E003C00
1E003C00
1E003C00
1E003C00
1E003C00
1E003C00
1E003C00
1E003E00
FFC1FF80
ENDCHAR

STARTCHAR I
ENCODING 73
SWIDTH 385 0
DWIDTH 13 0
BBX 10 25 1 0
BITMAP
FFC0
1E00
1E00
1E00
1E00
1E00
1E00
1E00
1E00
1E00
1E00
1E00
1E00
1E00
1E00
1E00
1E00
1E00
1E00
1E00
1E00
1E00
1E00
1E00
FFC0
ENDCHAR

STARTCHAR J
ENCODING 74
SWIDTH 573 0
DWIDTH 19 0
BBX 17 25 1 0
BITMAP
03FF80
003C00
003C00
003C00
003C00
003C00
003C00
003C00
003C00
003C00
003C00
003C00
003C00
003C00
003C00
203C00
703C00
F83C00
F03C00
F03C00
E03800
607800
707000
3FE000
078000
ENDCHAR

STARTCHAR K
ENCODING 75
SWIDTH 781 0
DWIDTH 26 0
BBX 25 25 1 0
BITMAP
FFC7FE00
1E00FC00
1E00F000
1E00E000
1E00C000
1E018000
1E030000
1E060000
1E0C0000
1E180000
1E380000
1E7C0000
1EEE0000
1EDE0000
1F8F0000
1F078000
1E078000
1E03C000
1E01E000
1E01E000
1E00F000
1E007800
1E007800
1E007E00
FFC3FF80
ENDCHAR

STARTCHAR L
ENCODING 76
SWIDTH 677 0
DWIDTH 22 0
BBX 20 25 1 0
BITMAP
FFE000
1E0000
1E0000
1E0000
1E0000
1E0000
1E0000
1E0000
1E0000
1E0000
1E0000
1E0000
1E0000
1E0000
1E0000
1E0000
1E0010
1E0010
1E0030
1E0030
1E0030
1E0070
1E00F0
1E03F0
FFFFF0
ENDCHAR

STARTCHAR M
ENCODING 77
SWIDTH 979 0
DWIDTH 32 0
BBX 30 25 1 0
BITMAP
FF0003FC
1B8006E0
1B8006E0
1B8005E0
1BC00DE0
1BC00DE0
19C009E0
19E019E0
18E019E0
18F011E0
18F031E0
187031E0
187821E0
187861E0
183861E0
183C41E0
181CC1E0
181EC1E0
181F81E0
180F81E0
180F01E0
180F01E0
3C0701E0
7E0601E0
FF860FFC
ENDCHAR

STARTCHAR N
ENCODING 78
SWIDTH 823 0
DWIDTH 27 0
BBX 25 26 1 -1
BITMAP
FE01FF80
3E003F00
1F001E00
1F800C00
1B800C00
1BC00C00
19E00C00
19E00C00
18F00C00
18780C00
187C0C00
183C0C00
181E0C00
181F0C00
180F0C00
18078C00
1803CC00
1803CC00
1801EC00
1800FC00
1800FC00
18007C00
3C003C00
7E001C00
FFC01C00
00000C00
ENDCHAR

STARTCHAR O
ENCODING 79
SWIDTH 792 0
DWIDTH 26 0
BBX 23 25 2 0
BITMAP
00FC00
03FF80
0F01E0
1E00F0
3C0078
380038
78003C
78003C
F8001E
F0001E
F0001E
F0001E
F0001E
F0001E
F0001E
F0001E
F8001E
78003C
78003C
3C0078
3C0078
1E00F0
0F03E0
03FF80
00FE00
ENDCHAR

STARTCHAR P
ENCODING 80
SWIDTH 667 0
DWIDTH 22 0
BBX 20 25 1 0
BITMAP
FFFF00
1E0FC0
1E03E0
1E01E0
1E00F0
1E00F0
1E00F0
1E00F0
1E00F0
1E00F0
1E01E0
1E03E0
1E0FC0
1FFF00
1E0000
1E0000
1E0000
1E0000
1E0000
1E0000
1E0000
1E0000
1E0000
1E0000
FFE000
ENDCHAR

STARTCHAR Q
ENCODING 81
SWIDTH 792 0
DWIDTH 26 0
BBX 26 28 2 -3
BITMAP
00FC0000
03FF8000
0F01E000
1E00F000
3C007800
38003800
78003C00
78003C00
F0001E00
F0001E00
F0001E00
F0001E00
F0001E00
F0001E00
F1F01E00
F3F81E00
7E1C1E00
7C0E3C00
7C0E3C00
3C0F3800
1C077000
1E07F000
0703E000
03FF8000
007DC000
0001F000
00007FC0
00000FC0
ENDCHAR

STARTCHAR R
ENCODING 82
SWIDTH 729 0
DWIDTH 24 0
BBX 23 25 1 0
BITMAP
FFFF00
1E07C0
1E01E0
1E01E0
1E00F0
1E00F0
1E00F0
1E00F0
1E00F0
1E01E0
1E01E0
1E0F80
1FFC00
1E3E00
1E0F00
1E0F00
1E0780
1E0780
1E03C0
1E03C0
1E01E0
1E01E0
1E00F0
1E00F8
FFC07E
ENDCHAR

STARTCHAR S
ENCODING 83
SWIDTH 615 0
DWIDTH 20 0
BBX 18 25 1 0
BITMAP
03F000
0FFF00
3C0F80
380780
700380
700380
780180
780180
7C0000
3F0000
1FC000
0FF800
03FE00
00FF00
003F80
000F80
C007C0
C003C0
E003C0
6003C0
700380
700780
7C0F00
3FFC00
03F000
ENDCHAR

STARTCHAR T
ENCODING 84
SWIDTH 698 0
DWIDTH 23 0
BBX 22 25 1 0
BITMAP
7FFFF8
7FFFF8
787878
707838
607818
E0781C
C0780C
C0780C
C0780C
C0780C
007800
007800
007800
007800
007800
007800
007800
007800
007800
007800
007800
007800
007800
007800
03FF80
ENDCHAR

STARTCHAR U
ENCODING 85
SWIDTH 771 0
DWIDTH 25 0
BBX 24 25 1 0
BITMAP
FFE1FF
1E007E
1E0018
1E0018
1E0018
1E0018
1E0018
1E0018
1E0018
1E0018
1E0018
1E0018
1E0018
1E0018
1E0018
1E0018
1E0018
1E0018
1E0018
1E0018
0F0030
0F0070
07C0E0
03FFC0
007E00
ENDCHAR

STARTCHAR V
ENCODING 86
SWIDTH 792 0
DWIDTH 26 0
BBX 25 25 1 0
BITMAP
FFC0FF80
3E003E00
1E001C00
1E001800
0E001800
0F001800
07003000
07003000
07806000
03806000
03C06000
03C0C000
01C0C000
01E08000
00E18000
00F18000
00F30000
00730000
007A0000
003E0000
003E0000
003C0000
001C0000
001C0000
00080000
ENDCHAR

STARTCHAR W
ENCODING 87
SWIDTH 1010 0
DWIDTH 33 0
BBX 32 25 1 0
BITMAP
FF1FF87F
3C03E03E
3C01C01C
1C01E018
1C01E018
1E03E018
0E037010
0E037030
0F067030
07067020
07067860
07843860
078C3860
038C3CC0
03CC3CC0
03D81CC0
01D81F80
01F81F80
01F00F80
00F00F00
00F00F00
00F00700
00600700
00600600
00600200
ENDCHAR

STARTCHAR X
ENCODING 88
SWIDTH 729 0
DWIDTH 24 0
BBX 23 25 1 0
BITMAP
FFC7FC
FFC7FC
3E01E0
1E00C0
1E01C0
0F0180
078300
07C700
03C600
01EC00
01F800
00F800
007800
007C00
00FC00
00DE00
018F00
038780
030780
0603C0
0C01E0
1C01E0
1C00F0
7E01F8
FF87FE
ENDCHAR

STARTCHAR Y
ENCODING 89
SWIDTH 729 0
DWIDTH 24 0
BBX 23 25 1 0
BITMAP
FFC1FE
3E007C
1E0030
1E0070
0F0060
0F8060
0780C0
03C1C0
03C180
01E300
00F300
00F600
007E00
007C00
003C00
003C00
003C00
003C00
003C00
003C00
003C00
003C00
003C00
003C00
01FF80
ENDCHAR

STARTCHAR Z
ENCODING 90
SWIDTH 625 0
DWIDTH 21 0
BBX 19 25 1 0
BITMAP
7FFFC0
7E03C0
780780
700780
600F00
601E00
601E00
603C00
003C00
007800
00F000
00F000
01E000
03E000
03C000
078000
078060
0F0040
1E00C0
1E00C0
3C01C0
7C01C0
7803C0
F00FC0
FFFFC0
ENDCHAR

STARTCHAR bracketleft
ENCODING 91
SWIDTH 344 0
DWIDTH 11 0
BBX 8 29 3 -4
BITMAP
FF
E0
E0
E0
E0
E0
E0
E0
E0
E0
E0
E0
E0
E0
E0
E0
E0
E0
E0
E0
E0
E0
E0
E0
E0
E0
E0
E0
FF
ENDCHAR

STARTCHAR backslash
ENCODING 92
SWIDTH 510 0
DWIDTH 17 0
BBX 15 28 1 -1
BITMAP
C000
4000
6000
2000
3000
1000
1800
1800
0C00
0C00
0600
0600
0300
0300
0180
0180
00C0
00C0
0060
0060
0030
0030
0018
0018
000C
000C
0004
0006
ENDCHAR

STARTCHAR bracketright
ENCODING 93
SWIDTH 344 0
DWIDTH 11 0
BBX 8 29 0 -4
BITMAP
FF
07
07
07
07
07
07
07
07
07
07
07
07
07
07
07
07
07
07
07
07
07
07
07
07
07
07
07
FF
ENDCHAR

STARTCHAR asciicircum
ENCODING 94
SWIDTH 469 0
DWIDTH 15 0
BBX 14 11 1 11
BITMAP
0300
0700
0580
0C80
08C0
1860
3020
2030
6010
4018
C00C
ENDCHAR

STARTCHAR underscore
ENCODING 95
SWIDTH 500 0
DWIDTH 17 0
BBX 17 1 0 -7
BITMAP
FFFF80
ENDCHAR

STARTCHAR quoteleft
ENCODING 96
SWIDTH 281 0
DWIDTH 9 0
BBX 5 9 2 16
BITMAP
18
30
60
40
C0
F0
F8
78
70
ENDCHAR

STARTCHAR a
ENCODING 97
SWIDTH 563 0
DWIDTH 19 0
BBX 17 18 1 0
BITMAP
07E000
1FF800
383C00
781C00
781C00
701C00
001C00
001C00
07FC00
1E1C00
781C00
F01C00
E01C00
E01C00
E07C00
F0EE00
7F8F80
1E0700
ENDCHAR

STARTCHAR b
ENCODING 98
SWIDTH 594 0
DWIDTH 20 0
BBX 18 25 0 0
BITMAP
FC0000
FC0000
1C0000
1C0000
1C0000
1C0000
1C0000
1C7C00
1CFE00
1D8700
1F0380
1E03C0
1C03C0
1C01C0
1C01C0
1C01C0
1C01C0
1C01C0
1C01C0
1C03C0
1C0380
1E0380
1F0700
1BFE00
10F000
ENDCHAR

STARTCHAR c
ENCODING 99
SWIDTH 510 0
DWIDTH 17 0
BBX 14 18 2 0
BITMAP
03C0
1FF0
3C38
783C
703C
F03C
E018
E000
E000
E000
E000
E000
F000
700C
7818
3C38
1FF0
07C0
ENDCHAR

STARTCHAR d
ENCODING 100
SWIDTH 594 0
DWIDTH 20 0
BBX 18 25 1 0
BITMAP
00FE00
00FE00
000E00
000E00
000E00
000E00
000E00
078E00
1FCE00
387600
701E00
700E00
F00E00
F00E00
E00E00
E00E00
E00E00
E00E00
F00E00
F00E00
701E00
703E00
386E00
1FCFC0
0F07C0
ENDCHAR

STARTCHAR e
ENCODING 101
SWIDTH 521 0
DWIDTH 17 0
BBX 15 18 1 0
BITMAP
07C0
1FF0
3838
701C
701E
F00E
E00E
E00E
FFFE
E000
E000
F000
F000
7006
780C
3C18
1FF0
07C0
ENDCHAR

STARTCHAR f
ENCODING 102
SWIDTH 344 0
DWIDTH 11 0
BBX 14 25 0 0
BITMAP
03F0
0E78
0C3C
1C3C
1C08
1C00
1C00
1C00
FFC0
FFC0
1C00
1C00
1C00
1C00
1C00
1C00
1C00
1C00
1C00
1C00
1C00
1C00
1C00
3E00
FFC0
ENDCHAR

STARTCHAR g
ENCODING 103
SWIDTH 552 0
DWIDTH 18 0
BBX 18 24 1 -6
BITMAP
0FE000
1C3FC0
381D80
780E00
700E00
700E00
700E00
780E00
381C00
043800
1FF000
300000
600000
600000
7FF800
3FFE00
0FFF00
380700
600300
E00300
E00700
700E00
3FFC00
07E000
ENDCHAR

STARTCHAR h
ENCODING 104
SWIDTH 646 0
DWIDTH 21 0
BBX 20 25 1 0
BITMAP
FC0000
FC0000
1C0000
1C0000
1C0000
1C0000
1C0000
1C3E00
1CFF00
1DCF00
1F0780
1E0380
1C0380
1C0380
1C0380
1C0380
1C0380
1C0380
1C0380
1C0380
1C0380
1C0380
1C0380
3E07C0
FF9FF0
ENDCHAR

STARTCHAR i
ENCODING 105
SWIDTH 365 0
DWIDTH 12 0
BBX 9 25 2 0
BITMAP
1C00
3C00
3C00
1C00
0000
0000
0000
FC00
FC00
1C00
1C00
1C00
1C00
1C00
1C00
1C00
1C00
1C00
1C00
1C00
1C00
1C00
1C00
3E00
FF80
ENDCHAR

STARTCHAR j
ENCODING 106
SWIDTH 323 0
DWIDTH 11 0
BBX 9 31 -1 -6
BITMAP
0380
0780
0780
0380
0000
0000
0000
3F80
3F80
0780
0380
0380
0380
0380
0380
0380
0380
0380
0380
0380
0380
0380
0380
0380
0380
0380
0380
E300
F300
FE00
7800
ENDCHAR

STARTCHAR k
ENCODING 107
SWIDTH 625 0
DWIDTH 21 0
BBX 19 26 1 0
BITMAP
3C0000
FC0000
3C0000
1C0000
1C0000
1C0000
1C0000
1C0000
1C3FC0
1C0F00
1C0E00
1C1C00
1C3800
1C3000
1C6000
1CF000
1DF000
1F7800
1E3C00
1C1C00
1C1E00
1C0E00
1C0F00
1C0780
3E07C0
FF9FE0
ENDCHAR

STARTCHAR l
ENCODING 108
SWIDTH 333 0
DWIDTH 11 0
BBX 9 25 1 0
BITMAP
FC00
FC00
1C00
1C00
1C00
1C00
1C00
1C00
1C00
1C00
1C00
1C00
1C00
1C00
1C00
1C00
1C00
1C00
1C00
1C00
1C00
1C00
1C00
3E00
FF80
ENDCHAR

STARTCHAR m
ENCODING 109
SWIDTH 938 0
DWIDTH 31 0
BBX 30 18 1 0
BITMAP
FC3C0F80
FCFE3FC0
1D8F73E0
1F0FC1E0
1E0780E0
1C0700E0
1C0700E0
1C0700E0
1C0700E0
1C0700E0
1C0700E0
1C0700E0
1C0700E0
1C0700E0
1C0700E0
1C0700E0
3E0F81F0
FF1FE7FC
ENDCHAR

STARTCHAR n
ENCODING 110
SWIDTH 646 0
DWIDTH 21 0
BBX 20 18 1 0
BITMAP
FC3E00
FCFF00
1DCF00
1F0780
1E0380
1C0380
1C0380
1C0380
1C0380
1C0380
1C0380
1C0380
1C0380
1C0380
1C0380
1C0380
3E07C0
FF9FF0
ENDCHAR

STARTCHAR o
ENCODING 111
SWIDTH 562 0
DWIDTH 19 0
BBX 16 18 1 0
BITMAP
03C0
1FF8
3C1C
780E
700E
F00F
E007
E007
E007
E007
E007
E007
F00F
700E
781E
3C3C
0FF8
03C0
ENDCHAR

STARTCHAR p
ENCODING 112
SWIDTH 594 0
DWIDTH 20 0
BBX 18 24 0 -6
BITMAP
F83800
FCFE00
1D8700
1F0780
1E03C0
1C03C0
1C01C0
1C01C0
1C01C0
1C01C0
1C01C0
1C01C0
1C03C0
1E0380
1E0780
1D8700
1CFE00
1C7C00
1C0000
1C0000
1C0000
1C0000
3E0000
FFC000
ENDCHAR

STARTCHAR q
ENCODING 113
SWIDTH 594 0
DWIDTH 20 0
BBX 18 24 1 -6
BITMAP
07C200
1FF600
383E00
701E00
700E00
F00E00
F00E00
E00E00
E00E00
E00E00
E00E00
F00E00
F00E00
701E00
703E00
386E00
1FCE00
0F0E00
000E00
000E00
000E00
000E00
001F00
00FFC0
ENDCHAR

STARTCHAR r
ENCODING 114
SWIDTH 490 0
DWIDTH 16 0
BBX 15 18 1 0
BITMAP
F83C
FCFE
1D9E
1F1E
1E0C
1C00
1C00
1C00
1C00
1C00
1C00
1C00
1C00
1C00
1C00
1C00
3E00
FFC0
ENDCHAR

STARTCHAR s
ENCODING 115
SWIDTH 479 0
DWIDTH 16 0
BBX 12 18 2 0
BITMAP
1F00
3FE0
60E0
C060
C060
E020
F000
FE00
7FC0
1FE0
03F0
00F0
8030
8030
C030
E060
FFC0
1F00
ENDCHAR

STARTCHAR t
ENCODING 116
SWIDTH 375 0
DWIDTH 12 0
BBX 11 24 1 0
BITMAP
0400
0C00
0C00
0C00
1C00
3C00
FFE0
FFE0
1C00
1C00
1C00
1C00
1C00
1C00
1C00
1C00
1C00
1C00
1C00
1C00
1C20
1E60
0FE0
0780
ENDCHAR

STARTCHAR u
ENCODING 117
SWIDTH 646 0
DWIDTH 21 0
BBX 20 18 1 0
BITMAP
FC1F80
FC1F80
1C0380
1C0380
1C0380
1C0380
1C0380
1C0380
1C0380
1C0380
1C0380
1C0380
1C0380
1C0780
1E0F80
0F1B80
0FF3F0
03C3F0
ENDCHAR

STARTCHAR v
ENCODING 118
SWIDTH 594 0
DWIDTH 20 0
BBX 18 18 1 0
BITMAP
FF1FC0
7C0780
380300
3C0600
1C0600
1C0400
0E0C00
0E0C00
0F0800
071800
071800
079000
03B000
03B000
01E000
01E000
01E000
00C000
ENDCHAR

STARTCHAR w
ENCODING 119
SWIDTH 833 0
DWIDTH 27 0
BBX 26 18 1 0
BITMAP
FF3F8FC0
381E0780
380E0300
1C0E0200
1C0F0200
1C1F0600
0E1B0600
0E1B8400
0E138C00
07338C00
0731C800
0721C800
03E1D800
03E0F800
03C0F000
01C0F000
01C07000
01C06000
ENDCHAR

STARTCHAR x
ENCODING 120
SWIDTH 583 0
DWIDTH 19 0
BBX 18 18 1 0
BITMAP
FF3F80
7C0F00
3C0C00
1C0800
0E1800
0F3000
07E000
03C000
03C000
01E000
03F000
067000
067800
0C3C00
181C00
301E00
780F00
FE7FC0
ENDCHAR

STARTCHAR y
ENCODING 121
SWIDTH 594 0
DWIDTH 20 0
BBX 18 24 1 -6
BITMAP
FF1FC0
7C0780
3C0300
1C0200
1C0600
0E0400
0E0400
0F0C00
070800
071800
039800
039000
03F000
01E000
01E000
00E000
00C000
00C000
00C000
218000
718000
730000
7E0000
1C0000
ENDCHAR

STARTCHAR z
ENCODING 122
SWIDTH 479 0
DWIDTH 16 0
BBX 14 18 1 0
BITMAP
7FFC
7038
6078
60F0
40E0
41E0
01C0
03C0
0780
0700
0F00
1E00
1C0C
3C08
3808
7018
F038
FFF8
ENDCHAR

STARTCHAR braceleft
ENCODING 123
SWIDTH 479 0
DWIDTH 16 0
BBX 9 30 3 -5
BITMAP
0180
0600
0C00
0800
1800
1800
1C00
1C00
1C00
1C00
1C00
0C00
0800
1000
6000
E000
1000
1800
0800
0C00
1C00
1C00
1C00
1C00
1C00
1800
1800
0C00
0600
0180
ENDCHAR

STARTCHAR bar
ENCODING 124
SWIDTH 510 0
DWIDTH 17 0
BBX 2 28 7 -1
BITMAP
C0
C0
C0
C0
C0
C0
C0
C0
C0
C0
C0
C0
C0
C0
C0
C0
C0
C0
C0
C0
C0
C0
C0
C0
C0
C0
C0
C0
ENDCHAR

STARTCHAR braceright
ENCODING 125
SWIDTH 479 0
DWIDTH 16 0
BBX 9 30 3 -5
BITMAP
C000
3000
1800
0800
0C00
0C00
1C00
1C00
1C00
1C00
1800
1800
0800
0400
0300
0380
0400
0C00
0800
1C00
1C00
1C00
1C00
1C00
0C00
0C00
0C00
1800
1000
E000
ENDCHAR

STARTCHAR asciitilde
ENCODING 126
SWIDTH 667 0
DWIDTH 22 0
BBX 18 5 2 8
BITMAP
1C0040
7F8040
41E080
407F80
800E00
ENDCHAR

STARTCHAR space
ENCODING 160
SWIDTH 250 0
DWIDTH 10 0
BBX 0 0 0 0
BITMAP
ENDCHAR

STARTCHAR afii10023
ENCODING 161
SWIDTH 698 0
DWIDTH 23 0
BBX 21 31 1 0
BITMAP
060180
0F03C0
0F03C0
060180
000000
000000
FFFFF0
1F01F0
1E0070
1E0030
1E0030
1E0038
1E0018
1E0618
1E0618
1E0600
1E0E00
1E3E00
1FFE00
1E1E00
1E0E00
1E0600
1E0608
1E0608
1E0018
1E0018
1E0018
1E0038
1E0078
1F01F8
FFFFF8
ENDCHAR

STARTCHAR afii10051
ENCODING 162
SWIDTH 875 0
DWIDTH 29 0
BBX 27 25 1 0
BITMAP
FFFFF000
FFFFF000
F0F0F000
E0F07000
C0F03000
C0F03000
80F01000
00F00000
00F00000
00F0FC00
00F3FF00
00F70F80
00FC03C0
00F803C0
00F001E0
00F001E0
00F001E0
00F001E0
00F001E0
00F001E0
00F001E0
00F003C0
00F06380
00F03F80
07FE1E00
ENDCHAR

STARTCHAR afii10052
ENCODING 163
SWIDTH 635 0
DWIDTH 21 0
BBX 19 32 1 0
BITMAP
000C00
003E00
007C00
03E000
010000
000000
000000
FFFFE0
1E03E0
1E00E0
1E00E0
1E0060
1E0060
1E0060
1E0020
1E0020
1E0000
1E0000
1E0000
1E0000
1E0000
1E0000
1E0000
1E0000
1E0000
1E0000
1E0000
1E0000
1E0000
1E0000
1E0000
FFC000
ENDCHAR

STARTCHAR afii10053
ENCODING 164
SWIDTH 698 0
DWIDTH 23 0
BBX 21 25 1 0
BITMAP
007E00
03FFC0
0F03E0
1E00E0
3C0070
3C0070
780030
780030
780030
F00000
F00000
F00000
FFF800
FFF800
F00000
F00000
F00000
780018
780010
380030
3C0060
1E00E0
0F01C0
03FF80
00FC00
ENDCHAR

STARTCHAR afii10054
ENCODING 165
SWIDTH 594 0
DWIDTH 20 0
BBX 18 25 1 0
BITMAP
03F000
0FFF00
3C0F80
380780
700380
700380
780180
780180
7C0000
3F0000
1FC000
0FF800
03FE00
00FF00
003F80
000F80
C007C0
C003C0
E003C0
6003C0
700380
700780
7C0F00
3FFC00
03F000
ENDCHAR

STARTCHAR afii10055
ENCODING 166
SWIDTH 385 0
DWIDTH 13 0
BBX 10 25 1 0
BITMAP
FFC0
1E00
1E00
1E00
1E00
1E00
1E00
1E00
1E00
1E00
1E00
1E00
1E00
1E00
1E00
1E00
1E00
1E00
1E00
1E00
1E00
1E00
1E00
1E00
FFC0
ENDCHAR

STARTCHAR afii10056
ENCODING 167
SWIDTH 385 0
DWIDTH 13 0
BBX 14 31 -1 0
BITMAP
6018
F03C
F03C
6018
0000
0000
7FF8
0780
0780
0780
0780
0780
0780
0780
0780
0780
0780
0780
0780
0780
0780
0780
0780
0780
0780
0780
0780
0780
0780
0780
7FF8
ENDCHAR

STARTCHAR afii10057
ENCODING 168
SWIDTH 573 0
DWIDTH 19 0
BBX 17 25 1 0
BITMAP
03FF80
003C00
003C00
003C00
003C00
003C00
003C00
003C00
003C00
003C00
003C00
003C00
003C00
003C00
003C00
203C00
703C00
F83C00
F03C00
F03C00
E03800
607800
707000
3FE000
078000
ENDCHAR

STARTCHAR afii10058
ENCODING 169
SWIDTH 1092 0
DWIDTH 36 0
BBX 35 25 0 0
BITMAP
07FFFF8000
01F03C0000
00E03C0000
00E03C0000
00C03C0000
00C03C0000
00C03C0000
00C03C0000
00C03C0000
00C03C0000
00C03C0000
00C03FFC00
00C03C1F00
00C03C07C0
00C03C03C0
00803C01E0
01803C01E0
01803C01E0
01803C01E0
01003C01E0
73003C03E0
FB003C03C0
FE003C0780
FE01FFFF00
7C01FFF000
ENDCHAR

STARTCHAR afii10059
ENCODING 170
SWIDTH 1089 0
DWIDTH 36 0
BBX 34 25 1 0
BITMAP
FFC3FF0000
1F00FC0000
1E00780000
1E00780000
1E00780000
1E00780000
1E00780000
1E00780000
1E00780000
1E00780000
1E00780000
1E00780000
1FFFFFF800
1E00783E00
1E00780F80
1E00780780
1E007803C0
1E007803C0
1E007803C0
1E007803C0
1E007803C0
1E00780780
1E00780F80
3F00FC3F00
FFC3FFFC00
ENDCHAR

STARTCHAR afii10060
ENCODING 171
SWIDTH 885 0
DWIDTH 29 0
BBX 28 25 1 0
BITMAP
FFFFF000
FFFFF800
F0F0F800
E0F07800
C0F03800
C0F01800
80F01800
00F00000
00F00000
00F0FC00
00F3FE00
00F71F00
00FC0F00
00F80780
00F00780
00F00780
00F00780
00F00780
00F00780
00F00780
00F00780
00F00780
00F00780
01F80FC0
07FF3FF0
ENDCHAR

STARTCHAR afii10061
ENCODING 172
SWIDTH 759 0
DWIDTH 25 0
BBX 24 31 0 0
BITMAP
0001C0
0007C0
000F80
003C00
000000
000000
FFE01C
1F003E
0E007E
0E00FE
0E00CC
0E0180
0E0100
0E0100
0E0300
0E0200
0E0600
0E0C00
0FF800
0FFF00
0E0F80
0E0380
0E03C0
0E01C0
0E01E0
0E00E0
0E00F0
0E0070
0E0078
1F003C
FFE03F
ENDCHAR

STARTCHAR hyphen
ENCODING 173
SWIDTH 281 0
DWIDTH 9 0
BBX 7 3 1 7
BITMAP
FE
FE
FE
ENDCHAR

STARTCHAR afii10062
ENCODING 174
SWIDTH 732 0
DWIDTH 24 0
BBX 24 31 0 0
BITMAP
01C1C0
01C1C0
01C1C0
00E380
007F00
000000
000000
FFC1FF
3E003C
1E0038
1E0030
0F0030
0F0020
078060
078040
03C0C0
03C0C0
01C180
01E180
00E100
00F300
007200
007E00
003C00
003C00
1C1800
1E1800
1E1000
1E3000
0FE000
078000
ENDCHAR

STARTCHAR afii10145
ENCODING 175
SWIDTH 823 0
DWIDTH 27 0
BBX 25 31 1 -6
BITMAP
FFC1FF80
1F003E00
1E003C00
1E003C00
1E003C00
1E003C00
1E003C00
1E003C00
1E003C00
1E003C00
1E003C00
1E003C00
1E003C00
1E003C00
1E003C00
1E003C00
1E003C00
1E003C00
1E003C00
1E003C00
1E003C00
1E003C00
1E003C00
3F007E00
FFFFFF80
00FF8000
003E0000
001C0000
001C0000
00080000
00080000
ENDCHAR

STARTCHAR afii10017
ENCODING 176
SWIDTH 792 0
DWIDTH 26 0
BBX 26 25 0 0
BITMAP
000C0000
000C0000
001E0000
001E0000
001F0000
00370000
00370000
00678000
00638000
0043C000
00C3C000
00C1C000
0181E000
0180E000
0100F000
03007000
03FFF000
07FFF800
06003800
0C003C00
0C003C00
0C001C00
1C001E00
3E001F00
FF80FFC0
ENDCHAR

STARTCHAR afii10018
ENCODING 177
SWIDTH 701 0
DWIDTH 23 0
BBX 21 25 1 0
BITMAP
FFFFE0
3F07E0
1E00E0
1E0070
1E0070
1E0030
1E0030
1E0030
1E0030
1E0000
1E0000
1E0000
1FFF00
1E07C0
1E01E0
1E00F0
1E0078
1E0078
1E0078
1E0078
1E0078
1E00F0
1E00F0
3E03E0
FFFF80
ENDCHAR

STARTCHAR afii10019
ENCODING 178
SWIDTH 719 0
DWIDTH 24 0
BBX 21 25 1 0
BITMAP
FFFF80
1E07C0
1E01E0
1E01F0
1E00F0
1E00F0
1E00F0
1E00F0
1E00E0
1E01E0
1E03C0
1E0E80
1FFF00
1E07C0
1E01F0
1E00F0
1E0078
1E0078
1E0078
1E0078
1E0078
1E00F0
1E01F0
1E03E0
FFFF80
ENDCHAR

STARTCHAR afii10020
ENCODING 179
SWIDTH 635 0
DWIDTH 21 0
BBX 19 25 1 0
BITMAP
FFFFE0
1E03E0
1E00E0
1E00E0
1E0060
1E0060
1E0060
1E0020
1E0020
1E0000
1E0000
1E0000
1E0000
1E0000
1E0000
1E0000
1E0000
1E0000
1E0000
1E0000
1E0000
1E0000
1E0000
1E0000
FFC000
ENDCHAR

STARTCHAR afii10021
ENCODING 180
SWIDTH 760 0
DWIDTH 25 0
BBX 24 31 0 -6
BITMAP
07FFFF
03F07C
01E078
00C078
00C078
00C078
00C078
00C078
00C078
00C078
00C078
008078
008078
018078
018078
018078
018078
030078
030078
020078
060078
0C0078
1C0078
700078
FFFFFF
FC001F
E00007
E00003
C00003
C00001
C00001
ENDCHAR

STARTCHAR afii10022
ENCODING 181
SWIDTH 698 0
DWIDTH 23 0
BBX 20 25 1 0
BITMAP
FFFFE0
1E03E0
1E00E0
1E0060
1E0060
1E0070
1E0030
1E0C30
1E0C30
1E0C00
1E1C00
1E3C00
1FFC00
1E3C00
1E1C00
1E0C00
1E0C10
1E0C10
1E0030
1E0030
1E0030
1E0070
1E00F0
1E03F0
FFFFF0
ENDCHAR

STARTCHAR afii10024
ENCODING 182
SWIDTH 1115 0
DWIDTH 37 0
BBX 37 25 0 0
BITMAP
1C07FF01C0
3E00F803E0
3F007007E0
3F80700FE0
1980700CC0
0080700800
00C0701800
00C0701800
0040701000
0060703000
0060703000
0030706000
000FFFC000
007FFFF000
00F0707800
01E0703C00
01C0701C00
03C0701E00
0380700E00
0780700F00
0780700700
0F00700780
0F00700780
3E00F803E0
FE07FF03F8
ENDCHAR

STARTCHAR afii10025
ENCODING 183
SWIDTH 601 0
DWIDTH 20 0
BBX 18 25 1 0
BITMAP
03F000
1FFC00
3C1F00
700F00
700780
600780
600780
600780
000700
000F00
003C00
03E000
03FC00
001F00
000780
0007C0
0003C0
0003C0
C003C0
4003C0
6007C0
700780
381F00
1FFE00
07F000
ENDCHAR

STARTCHAR afii10026
ENCODING 184
SWIDTH 823 0
DWIDTH 27 0
BBX 25 24 1 0
BITMAP
FFC1FF80
3E003C00
1E003C00
1E003C00
1E007C00
1E00FC00
1E01DC00
1E01BC00
1E033C00
1E063C00
1E063C00
1E0C3C00
1E183C00
1E383C00
1E303C00
1E603C00
1EC03C00
1FC03C00
1F803C00
1F003C00
1E003C00
1E003C00
3E003C00
FFC1FF80
ENDCHAR

STARTCHAR afii10027
ENCODING 185
SWIDTH 823 0
DWIDTH 27 0
BBX 25 31 1 0
BITMAP
01C0E000
01C0E000
01C0E000
00E1C000
003F8000
00000000
00000000
FFC1FF80
3E003C00
1E003C00
1E003C00
1E007C00
1E00FC00
1E01DC00
1E01BC00
1E033C00
1E063C00
1E0E3C00
1E0C3C00
1E183C00
1E303C00
1E303C00
1E603C00
1EC03C00
1EC03C00
1F803C00
1F003C00
1E003C00
1E003C00
3E003C00
FFC1FF80
ENDCHAR

STARTCHAR afii10028
ENCODING 186
SWIDTH 759 0
DWIDTH 25 0
BBX 24 25 0 0
BITMAP
FFE01C
1F003E
0E007E
0E00FE
0E00CC
0E0180
0E0100
0E0100
0E0300
0E0200
0E0600
0E0C00
0FF800
0FFF00
0E0F80
0E0380
0E03C0
0E01C0
0E01E0
0E00E0
0E00F0
0E0070
0E0078
1F003C
FFE03F
ENDCHAR

STARTCHAR afii10029
ENCODING 187
SWIDTH 789 0
DWIDTH 26 0
BBX 25 26 0 -1
BITMAP
0FFFFF80
01F03C00
00E03C00
00C03C00
00C03C00
00C03C00
00C03C00
00C03C00
00C03C00
00C03C00
00C03C00
00C03C00
00C03C00
00C03C00
00803C00
01803C00
01803C00
01803C00
01803C00
01803C00
01003C00
73003C00
FB003C00
FE007E00
FE01FF80
78000000
ENDCHAR

STARTCHAR afii10030
ENCODING 188
SWIDTH 979 0
DWIDTH 32 0
BBX 30 25 1 0
BITMAP
FF0003FC
1B8006E0
1B8006E0
1B8005E0
1BC00DE0
1BC00DE0
19C009E0
19E019E0
18E019E0
18F011E0
18F031E0
187031E0
187821E0
187861E0
183861E0
183C41E0
181CC1E0
181EC1E0
181F81E0
180F81E0
180F01E0
180F01E0
3C0701E0
7E0601E0
FF860FFC
ENDCHAR

STARTCHAR afii10031
ENCODING 189
SWIDTH 812 0
DWIDTH 27 0
BBX 25 25 1 0
BITMAP
FFC1FF80
1E003C00
1E003C00
1E003C00
1E003C00
1E003C00
1E003C00
1E003C00
1E003C00
1E003C00
1E003C00
1FFFFC00
1FFFFC00
1E003C00
1E003C00
1E003C00
1E003C00
1E003C00
1E003C00
1E003C00
1E003C00
1E003C00
1E003C00
1E003C00
FFC1FF80
ENDCHAR

STARTCHAR afii10032
ENCODING 190
SWIDTH 767 0
DWIDTH 25 0
BBX 23 25 1 0
BITMAP
00FC00
03FF80
0F01E0
1E00F0
3C0078
380038
78003C
78003C
F8001E
F0001E
F0001E
F0001E
F0001E
F0001E
F0001E
F0001E
F8001E
78003C
78003C
3C0038
3C0078
1E00F0
0F01E0
03FF80
00FE00
ENDCHAR

STARTCHAR afii10033
ENCODING 191
SWIDTH 823 0
DWIDTH 27 0
BBX 25 25 1 0
BITMAP
FFFFFF80
3E003E00
1E003C00
1E003C00
1E003C00
1E003C00
1E003C00
1E003C00
1E003C00
1E003C00
1E003C00
1E003C00
1E003C00
1E003C00
1E003C00
1E003C00
1E003C00
1E003C00
1E003C00
1E003C00
1E003C00
1E003C00
1E003C00
1F007E00
FFC1FF80
ENDCHAR

STARTCHAR afii10034
ENCODING 192
SWIDTH 662 0
DWIDTH 22 0
BBX 20 25 1 0
BITMAP
FFFF00
1E0FC0
1E03E0
1E01E0
1E00F0
1E00F0
1E00F0
1E00F0
1E00F0
1E00F0
1E01E0
1E03E0
1E0FC0
1FFF00
1E0000
1E0000
1E0000
1E0000
1E0000
1E0000
1E0000
1E0000
1E0000
1E0000
FFE000
ENDCHAR

STARTCHAR afii10035
ENCODING 193
SWIDTH 694 0
DWIDTH 23 0
BBX 21 25 1 0
BITMAP
00FE00
03FFC0
0F03E0
1E00E0
3C0070
3C0070
780030
780030
F80010
F00000
F00000
F00000
F00000
F00000
F00000
F00000
F00018
780018
780010
380030
3C0060
1E00E0
0F01C0
03FF00
00FC00
ENDCHAR

STARTCHAR afii10036
ENCODING 194
SWIDTH 688 0
DWIDTH 23 0
BBX 22 25 0 0
BITMAP
7FFFF8
7FFFF8
787878
707838
607818
E07818
C0780C
C0780C
C0780C
C0780C
007800
007800
007800
007800
007800
007800
007800
007800
007800
007800
007800
007800
007800
007800
03FF00
ENDCHAR

STARTCHAR afii10037
ENCODING 195
SWIDTH 732 0
DWIDTH 24 0
BBX 24 24 0 0
BITMAP
FFC1FF
3E003C
1E0018
1E0018
0F0030
0F0030
078060
078060
03C040
03C0C0
01C080
01E180
00E100
00F300
007200
007E00
003C00
003C00
1C1800
1C1800
1E1000
1E3000
1FE000
078000
ENDCHAR

STARTCHAR afii10038
ENCODING 196
SWIDTH 799 0
DWIDTH 26 0
BBX 25 25 1 0
BITMAP
01FFC000
003E0000
001C0000
01FFC000
07FFF000
1E1C3C00
3C1C0E00
781C0F00
701C0700
701C0700
F01C0780
F01C0780
F01C0780
F01C0780
F01C0780
701C0700
781C0F00
381C0E00
3C1C1E00
1E1C3C00
07FFF000
00FF8000
001C0000
003E0000
01FFC000
ENDCHAR

STARTCHAR afii10039
ENCODING 197
SWIDTH 729 0
DWIDTH 24 0
BBX 23 25 1 0
BITMAP
FFC7FC
FFC7FC
3E01E0
1E00C0
1E01C0
0F0180
078300
07C700
03C600
01EC00
01F800
00F800
007800
007C00
00FC00
00DE00
018F00
038780
030780
0603C0
0C01E0
1C01E0
1C00F0
7E01F8
FF87FE
ENDCHAR

STARTCHAR afii10040
ENCODING 198
SWIDTH 823 0
DWIDTH 27 0
BBX 25 31 1 -6
BITMAP
FFC1FF80
1F003E00
1E003C00
1E003C00
1E003C00
1E003C00
1E003C00
1E003C00
1E003C00
1E003C00
1E003C00
1E003C00
1E003C00
1E003C00
1E003C00
1E003C00
1E003C00
1E003C00
1E003C00
1E003C00
1E003C00
1E003C00
1E003C00
3E003E00
FFFFFF80
00000F80
00000380
00000180
00000180
00000080
00000080
ENDCHAR

STARTCHAR afii10041
ENCODING 199
SWIDTH 761 0
DWIDTH 25 0
BBX 24 25 0 0
BITMAP
FFC3FF
1F00F8
1E0078
1E0078
1E0078
1E0078
1E0078
1E0078
1E0078
1E0078
0E0078
0F0078
0F83F8
07FF78
01FC78
000078
000078
000078
000078
000078
000078
000078
000078
0000FC
0003FF
ENDCHAR

STARTCHAR afii10042
ENCODING 200
SWIDTH 1073 0
DWIDTH 35 0
BBX 34 25 1 0
BITMAP
FFCFFCFFC0
1F03F03F00
1E01E01E00
1E01E01E00
1E01E01E00
1E01E01E00
1E01E01E00
1E01E01E00
1E01E01E00
1E01E01E00
1E01E01E00
1E01E01E00
1E01E01E00
1E01E01E00
1E01E01E00
1E01E01E00
1E01E01E00
1E01E01E00
1E01E01E00
1E01E01E00
1E01E01E00
1E01E01E00
1E01E01E00
3E01E01E00
FFFFFFFFC0
ENDCHAR

STARTCHAR afii10043
ENCODING 201
SWIDTH 1073 0
DWIDTH 35 0
BBX 34 30 1 -5
BITMAP
FFCFFCFFC0
1F03F03F00
1E01E01E00
1E01E01E00
1E01E01E00
1E01E01E00
1E01E01E00
1E01E01E00
1E01E01E00
1E01E01E00
1E01E01E00
1E01E01E00
1E01E01E00
1E01E01E00
1E01E01E00
1E01E01E00
1E01E01E00
1E01E01E00
1E01E01E00
1E01E01E00
1E01E01E00
1E01E01E00
1E01E01E00
FFFFFFFFC0
FFFFFFFFC0
00000003C0
00000001C0
00000000C0
00000000C0
0000000040
ENDCHAR

STARTCHAR afii10044
ENCODING 202
SWIDTH 879 0
DWIDTH 29 0
BBX 27 25 1 0
BITMAP
7FFF0000
7C7C0000
70780000
60780000
60780000
C0780000
C0780000
C0780000
C0780000
00780000
00780000
00780000
007FFC00
00781F00
007807C0
007803C0
007801E0
007801E0
007801E0
007801E0
007801E0
007803C0
007807C0
00F81F80
03FFFE00
ENDCHAR

STARTCHAR afii10045
ENCODING 203
SWIDTH 1042 0
DWIDTH 34 0
BBX 32 25 1 0
BITMAP
FFC00000
3F0003FF
1E000078
1E000078
1E000078
1E000078
1E000078
1E000078
1E000078
1E000078
1E000078
1E000078
1FFF0078
1E07C078
1E01F078
1E00F078
1E007878
1E007878
1E007878
1E007878
1E007878
1E00F078
1E01F078
3E07E078
FFFF83FF
ENDCHAR

STARTCHAR afii10046
ENCODING 204
SWIDTH 704 0
DWIDTH 23 0
BBX 21 25 1 0
BITMAP
FFC000
3F0000
1E0000
1E0000
1E0000
1E0000
1E0000
1E0000
1E0000
1E0000
1E0000
1E0000
1FFF00
1E07C0
1E01F0
1E00F0
1E0078
1E0078
1E0078
1E0078
1E0078
1E00F0
1E00F0
3E07E0
FFFF80
ENDCHAR

STARTCHAR afii10047
ENCODING 205
SWIDTH 698 0
DWIDTH 23 0
BBX 21 25 1 0
BITMAP
03F000
3FFE00
3E0780
3803C0
7001E0
7000E0
6000F0
6000F0
000078
000078
000078
00FFF8
00FFF8
000078
000078
000078
C00078
4000F0
6000F0
6001E0
3001E0
3803C0
1E0F80
07FE00
01F800
ENDCHAR

STARTCHAR afii10048
ENCODING 206
SWIDTH 1104 0
DWIDTH 36 0
BBX 34 25 1 0
BITMAP
FFC00FC000
1E007FF000
1E00F03C00
1E01C01E00
1E03C00F00
1E07800700
1E07800780
1E0F000380
1E0F0003C0
1E0F0003C0
1E0F0003C0
1FFF0003C0
1FFF0003C0
1E0F0003C0
1E0F0003C0
1E0F0003C0
1E0F000380
1E07800780
1E07800780
1E03800700
1E03C00E00
1E01E01E00
1E00F03C00
3F003FF000
FFC00F8000
ENDCHAR

STARTCHAR afii10049
ENCODING 207
SWIDTH 729 0
DWIDTH 24 0
BBX 23 24 0 0
BITMAP
01FFFE
07C0F0
0F00F0
0F00F0
1E00F0
1E00F0
1E00F0
1E00F0
1E00F0
0F00F0
0780F0
03E0F0
007FF0
00F0F0
01E0F0
03C0F0
03C0F0
0780F0
0780F0
0F00F0
0E00F0
1E00F0
3C00F0
FC07FE
ENDCHAR

STARTCHAR afii10065
ENCODING 208
SWIDTH 563 0
DWIDTH 19 0
BBX 17 18 1 0
BITMAP
07E000
1FF800
383C00
781C00
781C00
701C00
001C00
001C00
07FC00
1E1C00
781C00
F01C00
E01C00
E01C00
E07C00
F0EE00
7F8F80
1E0700
ENDCHAR

STARTCHAR afii10066
ENCODING 209
SWIDTH 567 0
DWIDTH 19 0
BBX 16 25 1 0
BITMAP
0003
01FE
0FFE
1FF8
3C00
3000
6000
61E0
47F8
5C1C
D80E
D00E
D007
F007
F007
F007
F007
7007
7007
700F
380E
380C
1C1C
0FF0
03C0
ENDCHAR

STARTCHAR afii10067
ENCODING 210
SWIDTH 559 0
DWIDTH 18 0
BBX 17 18 0 0
BITMAP
FFF800
FFFE00
1C0F00
1C0700
1C0700
1C0700
1C0E00
1C0C00
1FF800
1C1E00
1C0780
1C0380
1C0380
1C0380
1C0780
1C0780
3E1F00
FFFC00
ENDCHAR

STARTCHAR afii10068
ENCODING 211
SWIDTH 504 0
DWIDTH 17 0
BBX 16 18 1 0
BITMAP
FFFE
3E1E
1C07
1C07
1C03
1C03
1C00
1C00
1C00
1C00
1C00
1C00
1C00
1C00
1C00
1C00
3E00
FF80
ENDCHAR

STARTCHAR afii10069
ENCODING 212
SWIDTH 616 0
DWIDTH 20 0
BBX 20 23 0 -5
BITMAP
0FFFF0
07C3C0
038380
030380
010380
030380
030380
030380
030380
030380
020380
060380
060380
040380
0C0380
180380
3007C0
FFFFF0
F00070
C00030
C00030
C00030
C00030
ENDCHAR

STARTCHAR afii10070
ENCODING 213
SWIDTH 513 0
DWIDTH 17 0
BBX 15 19 1 0
BITMAP
07C0
1FF0
3C38
781C
701C
F00E
F00E
E00E
E00E
FFFE
E000
E000
F000
F000
7006
780C
3C18
1FF0
07C0
ENDCHAR

STARTCHAR afii10072
ENCODING 214
SWIDTH 844 0
DWIDTH 28 0
BBX 27 18 0 0
BITMAP
307FC1C0
781F03C0
7C0E07C0
760E04C0
060E0C00
020E0800
030E1800
030E1000
008E2000
01FFF000
03CE7800
078E3C00
070E1C00
0E0E0E00
1E0E0F00
1C0E0700
7C1F07C0
F87FC3E0
ENDCHAR

STARTCHAR afii10073
ENCODING 215
SWIDTH 479 0
DWIDTH 16 0
BBX 14 18 1 0
BITMAP
07C0
3FF0
3838
301C
601C
601C
0038
0070
07C0
07F0
007C
003C
601C
F01C
F01C
7038
7878
1FE0
ENDCHAR

STARTCHAR afii10074
ENCODING 216
SWIDTH 646 0
DWIDTH 21 0
BBX 20 18 1 0
BITMAP
FF9FF0
3E03C0
1C0380
1C0380
1C0780
1C0D80
1C1B80
1C3380
1C2380
1C6380
1CC380
1D8380
1F0380
1E0380
1E0380
1C0380
3E07C0
FF9FF0
ENDCHAR

STARTCHAR afii10075
ENCODING 217
SWIDTH 646 0
DWIDTH 21 0
BBX 20 25 1 0
BITMAP
020400
070E00
070E00
030C00
01F800
000000
000000
FF9FF0
3E03C0
1C0380
1C0380
1C0780
1C0D80
1C1B80
1C3380
1C2380
1C6380
1CC380
1D8380
1F0380
1E0380
1E0380
1C0380
3E07C0
FF9FF0
ENDCHAR

STARTCHAR afii10076
ENCODING 218
SWIDTH 602 0
DWIDTH 20 0
BBX 19 18 0 0
BITMAP
FF8180
3E07C0
1C07C0
1C0CC0
1C0C00
1C0800
1C1800
1C1000
1FE000
1FF000
1C3800
1C3C00
1C1C00
1C0E00
1C0F00
1C0700
3E0780
FF83E0
ENDCHAR

STARTCHAR afii10077
ENCODING 219
SWIDTH 639 0
DWIDTH 21 0
BBX 20 18 1 0
BITMAP
1FFFF0
0783C0
030380
030380
030380
030380
030380
020380
020380
020380
020380
020380
060380
060380
C40380
EC0380
FC07C0
F01FF0
ENDCHAR

STARTCHAR afii10078
ENCODING 220
SWIDTH 784 0
DWIDTH 26 0
BBX 24 18 1 0
BITMAP
FE007F
3600DC
3700B8
3701B8
3701B8
378138
338338
338238
33C238
31C638
31C438
31EC38
30EC38
30E838
307838
307038
30707C
FC31FF
ENDCHAR

STARTCHAR afii10079
ENCODING 221
SWIDTH 646 0
DWIDTH 21 0
BBX 20 18 1 0
BITMAP
FF9FF0
3E07C0
1C0380
1C0380
1C0380
1C0380
1C0380
1C0380
1FFF80
1C0380
1C0380
1C0380
1C0380
1C0380
1C0380
1C0380
3E07C0
FF9FF0
ENDCHAR

STARTCHAR afii10080
ENCODING 222
SWIDTH 548 0
DWIDTH 18 0
BBX 16 18 1 0
BITMAP
03C0
1FF8
3C1C
780E
700E
F00F
E007
E007
E007
E007
E007
E007
F00F
700E
781E
3C3C
0FF8
03C0
ENDCHAR

STARTCHAR afii10081
ENCODING 223
SWIDTH 646 0
DWIDTH 21 0
BBX 20 18 1 0
BITMAP
FFFFF0
3E07C0
1C0380
1C0380
1C0380
1C0380
1C0380
1C0380
1C0380
1C0380
1C0380
1C0380
1C0380
1C0380
1C0380
1C0380
3E07C0
FF9FF0
ENDCHAR

STARTCHAR afii10082
ENCODING 224
SWIDTH 594 0
DWIDTH 20 0
BBX 18 24 0 -6
BITMAP
F83800
FCFE00
1D8700
1E0780
1E03C0
1C03C0
1C01C0
1C01C0
1C01C0
1C01C0
1C01C0
1C01C0
1C03C0
1E0380
1E0780
1D8700
1CFE00
1C7C00
1C0000
1C0000
1C0000
1C0000
3E0000
FFC000
ENDCHAR

STARTCHAR afii10083
ENCODING 225
SWIDTH 500 0
DWIDTH 17 0
BBX 14 18 1 0
BITMAP
03C0
1FF0
3838
783C
703C
F03C
E018
E000
E000
E000
E000
E000
F000
700C
7818
3C38
1FF0
07C0
ENDCHAR

STARTCHAR afii10084
ENCODING 226
SWIDTH 552 0
DWIDTH 18 0
BBX 17 18 1 0
BITMAP
FFFF80
F1C780
E1C380
C1C180
C1C180
C1C080
01C000
01C000
01C000
01C000
01C000
01C000
01C000
01C000
01C000
01C000
03E000
0FF800
ENDCHAR

STARTCHAR afii10085
ENCODING 227
SWIDTH 573 0
DWIDTH 19 0
BBX 19 24 0 -6
BITMAP
FF0FE0
3C0380
1C0300
1C0300
0E0200
0E0600
0F0600
070400
078C00
038C00
038800
01D800
01D000
01F000
00F000
00E000
006000
006000
004000
30C000
788000
798000
3F0000
1C0000
ENDCHAR

STARTCHAR afii10086
ENCODING 228
SWIDTH 746 0
DWIDTH 25 0
BBX 23 29 1 -5
BITMAP
01FF00
007C00
003800
003800
003800
003800
0F39E0
3FBBF8
38DE3C
707C1C
70381E
E0380E
E0380E
E0380E
E0380E
E0380E
E0380E
E0380E
E0380E
70381C
707C1C
38DA3C
3FBBF8
0F39E0
003800
003800
003800
007C00
01FF00
ENDCHAR

STARTCHAR afii10087
ENCODING 229
SWIDTH 583 0
DWIDTH 19 0
BBX 18 18 1 0
BITMAP
FF3F80
7C0F00
3C0C00
1C0800
0E1800
0F3000
07E000
03C000
03C000
01E000
03F000
067000
067800
0C3C00
181C00
301E00
780F00
FE7FC0
ENDCHAR

STARTCHAR afii10088
ENCODING 230
SWIDTH 646 0
DWIDTH 21 0
BBX 20 23 1 -5
BITMAP
FF9FF0
3E07C0
1C0380
1C0380
1C0380
1C0380
1C0380
1C0380
1C0380
1C0380
1C0380
1C0380
1C0380
1C0380
1C0380
1C0380
3C03C0
FFFFF0
0000F0
000030
000030
000030
000030
ENDCHAR

STARTCHAR afii10089
ENCODING 231
SWIDTH 625 0
DWIDTH 21 0
BBX 20 18 0 0
BITMAP
FF8FF0
3E07C0
1C0380
1C0380
1C0380
1C0380
1C0380
1C0780
1E1D80
0FFB80
07E380
000380
000380
000380
000380
000380
0007C0
001FF0
ENDCHAR

STARTCHAR afii10090
ENCODING 232
SWIDTH 927 0
DWIDTH 31 0
BBX 29 18 1 0
BITMAP
FF1FC7F8
3E0F03E0
1C0701C0
1C0701C0
1C0701C0
1C0701C0
1C0701C0
1C0701C0
1C0701C0
1C0701C0
1C0701C0
1C0701C0
1C0701C0
1C0701C0
1C0701C0
1C0701C0
3C0701E0
FFFFFFF8
ENDCHAR

STARTCHAR afii10091
ENCODING 233
SWIDTH 927 0
DWIDTH 31 0
BBX 29 23 1 -5
BITMAP
FF1FC7F8
3E0F03E0
1C0701C0
1C0701C0
1C0701C0
1C0701C0
1C0701C0
1C0701C0
1C0701C0
1C0701C0
1C0701C0
1C0701C0
1C0701C0
1C0701C0
1C0701C0
1C0701C0
3C0701E0
FFFFFFF8
00000078
00000018
00000018
00000018
00000018
ENDCHAR

STARTCHAR afii10092
ENCODING 234
SWIDTH 695 0
DWIDTH 23 0
BBX 21 18 1 0
BITMAP
FFF800
FFF800
E1C000
C1C000
C1C000
C1C000
01C000
01C000
01FFC0
01C1F0
01C0F0
01C078
01C078
01C078
01C078
01C0F0
03E1E0
0FFFC0
ENDCHAR

STARTCHAR afii10093
ENCODING 235
SWIDTH 833 0
DWIDTH 27 0
BBX 26 18 1 0
BITMAP
FF807FC0
3E001F00
1C000E00
1C000E00
1C000E00
1C000E00
1C000E00
1C000E00
1FFC0E00
1C1F0E00
1C0F0E00
1C078E00
1C078E00
1C078E00
1C078E00
1C0F0E00
3E1E1F00
FFFC7FC0
ENDCHAR

STARTCHAR afii10094
ENCODING 236
SWIDTH 565 0
DWIDTH 19 0
BBX 17 18 1 0
BITMAP
FF8000
3E0000
1C0000
1C0000
1C0000
1C0000
1C0000
1C0000
1FFC00
1C1F00
1C0F00
1C0780
1C0780
1C0780
1C0780
1C0F00
3E1E00
FFFC00
ENDCHAR

STARTCHAR afii10095
ENCODING 237
SWIDTH 490 0
DWIDTH 16 0
BBX 14 18 1 0
BITMAP
0F80
7FE0
7070
6038
4038
C03C
001C
001C
07FC
001C
001C
401C
E03C
E038
E038
F0F0
7FE0
0F80
ENDCHAR

STARTCHAR afii10096
ENCODING 238
SWIDTH 833 0
DWIDTH 27 0
BBX 26 18 0 0
BITMAP
FF80F000
3E07FE00
1C0F0700
1C1E0380
1C1C0380
1C3C03C0
1C3C01C0
1C3C01C0
1FF801C0
1C3C01C0
1C3C01C0
1C3C01C0
1C1C03C0
1C1C0380
1C0E0780
1C0F0F00
3E03FE00
FF80F000
ENDCHAR

STARTCHAR afii10097
ENCODING 239
SWIDTH 577 0
DWIDTH 19 0
BBX 19 18 0 0
BITMAP
01FFE0
07FFE0
0F0700
1E0700
1C0700
1C0700
1E0700
1E0700
0F8700
01FF00
038700
070700
0F0700
0E0700
0E0700
1C0700
3C0F00
FC3FE0
ENDCHAR

STARTCHAR afii61352
ENCODING 240
SWIDTH 1053 0
DWIDTH 35 0
BBX 33 25 1 0
BITMAP
0000078000
3F000FC000
0F800FC000
07C0198000
07C0180000
07E0180000
06E0180000
06F0187C00
06F818C600
0678198300
063C198380
063C1B8380
061E1B8380
061F1B8380
060F1B8380
0607998300
0607998300
0603D8C600
0603F87C00
0601F80000
0600F80000
6600F80000
FE00780000
FC0078FE00
780038FE00
ENDCHAR

STARTCHAR afii10071
ENCODING 241
SWIDTH 513 0
DWIDTH 17 0
BBX 15 24 1 0
BITMAP
1818
3C3C
3C3C
1818
0000
07C0
1FF0
3C38
781C
701C
F00E
F00E
E00E
E00E
FFFE
E000
E000
F000
F000
7006
780C
3C18
1FF0
07C0
ENDCHAR

STARTCHAR afii10099
ENCODING 242
SWIDTH 574 0
DWIDTH 19 0
BBX 17 31 1 -6
BITMAP
FC0000
3C0000
1C0000
1C0000
FFFC00
1C0000
1C0000
1C7800
1DFE00
1D9F00
1F0F00
1E0700
1C0780
1C0780
1C0380
1C0380
1C0380
1C0380
1C0380
1C0380
1C0380
1C0380
1C0380
3E0700
FF8700
000700
000E00
001C00
003C00
01F000
01C000
ENDCHAR

STARTCHAR afii10100
ENCODING 243
SWIDTH 504 0
DWIDTH 17 0
BBX 16 25 1 0
BITMAP
0030
00F0
01E0
0380
0400
0000
0000
FFFE
3E1E
1C07
1C07
1C03
1C03
1C00
1C00
1C00
1C00
1C00
1C00
1C00
1C00
1C00
1C00
3E00
FF80
ENDCHAR

STARTCHAR afii10101
ENCODING 244
SWIDTH 500 0
DWIDTH 17 0
BBX 14 19 1 0
BITMAP
07C0
1FF0
3C38
783C
703C
F03C
F018
E000
E000
FF80
E000
E000
E000
F004
700C
7818
3C38
1FF0
07C0
ENDCHAR

STARTCHAR afii10102
ENCODING 245
SWIDTH 458 0
DWIDTH 15 0
BBX 12 18 2 0
BITMAP
1F00
3FE0
60E0
C060
C060
E020
F000
FE00
7FC0
1FE0
03F0
00F0
8030
8030
C030
E060
FFC0
1F00
ENDCHAR

STARTCHAR afii10103
ENCODING 246
SWIDTH 354 0
DWIDTH 12 0
BBX 9 24 2 0
BITMAP
1C00
3C00
3C00
1C00
0000
0000
FC00
FC00
1C00
1C00
1C00
1C00
1C00
1C00
1C00
1C00
1C00
1C00
1C00
1C00
1C00
1C00
3E00
FF80
ENDCHAR

STARTCHAR afii10104
ENCODING 247
SWIDTH 354 0
DWIDTH 12 0
BBX 11 23 0 0
BITMAP
60C0
F1E0
F1E0
60C0
0000
7F00
7F00
0F00
0700
0700
0700
0700
0700
0700
0700
0700
0700
0700
0700
0700
0700
0F80
7FE0
ENDCHAR

STARTCHAR afii10105
ENCODING 248
SWIDTH 323 0
DWIDTH 11 0
BBX 9 30 -1 -6
BITMAP
0300
0780
0780
0380
0000
0000
3F80
3F80
0380
0380
0380
0380
0380
0380
0380
0380
0380
0380
0380
0380
0380
0380
0380
0380
0380
0380
E300
F300
FE00
7800
ENDCHAR

STARTCHAR afii10106
ENCODING 249
SWIDTH 887 0
DWIDTH 29 0
BBX 28 18 0 0
BITMAP
1FFFF000
0783C000
03038000
03038000
03038000
03038000
03038000
03038000
0303FF80
020383E0
020381E0
020380F0
020380F0
060380F0
C60380F0
EC0381E0
FC07C3E0
781FFF80
ENDCHAR

STARTCHAR afii10107
ENCODING 250
SWIDTH 888 0
DWIDTH 29 0
BBX 28 17 1 0
BITMAP
FF9FF000
1E038000
1C038000
1C038000
1C038000
1C038000
1C038000
1FFFFF80
1C0383E0
1C0381E0
1C0380F0
1C0380F0
1C0380F0
1C0380F0
1C0380E0
3E07C3C0
FF9FFF80
ENDCHAR

STARTCHAR afii10108
ENCODING 251
SWIDTH 635 0
DWIDTH 21 0
BBX 20 25 0 0
BITMAP
FC0000
FC0000
1C0000
1C0000
FFFC00
1C0000
1C0000
1C3E00
1CFF00
1DCF00
1F0780
1E0380
1C0380
1C0380
1C0380
1C0380
1C0380
1C0380
1C0380
1C0380
1C0380
1C0380
1C0380
3E07C0
FF9FF0
ENDCHAR

STARTCHAR afii10109
ENCODING 252
SWIDTH 602 0
DWIDTH 20 0
BBX 19 25 0 0
BITMAP
000600
000E00
003E00
007800
00C000
000000
000000
FF8180
3E07C0
1C07C0
1C0CC0
1C0C00
1C0800
1C1800
1C1000
1FE000
1FF000
1C3800
1C3C00
1C1C00
1C0E00
1C0F00
1C0700
3E0780
FF83E0
ENDCHAR

STARTCHAR section
ENCODING 253
SWIDTH 490 0
DWIDTH 16 0
BBX 14 31 1 -6
BITMAP
07C0
1FF0
3878
7038
7078
7038
7800
3C00
3F00
0F80
1FC0
33F0
60F8
E07C
E03C
F01C
780C
7C0C
3E1C
1F98
0FF0
03E0
01F0
00F8
0078
3838
3838
3838
3C70
1FE0
0780
ENDCHAR

STARTCHAR afii10110
ENCODING 254
SWIDTH 573 0
DWIDTH 19 0
BBX 18 31 0 -6
BITMAP
020400
070E00
070E00
030C00
01F800
000000
000000
FF0FC0
3C0780
1C0300
1E0200
0E0200
0E0600
070400
070C00
078C00
038800
039800
01D800
01D000
01F000
00E000
00E000
006000
004000
00C000
30C000
788000
798000
3F0000
1C0000
ENDCHAR

STARTCHAR afii10193
ENCODING 255
SWIDTH 646 0
DWIDTH 21 0
BBX 20 23 1 -5
BITMAP
FF9FF0
3E07C0
1C0380
1C0380
1C0380
1C0380
1C0380
1C0380
1C0380
1C0380
1C0380
1C0380
1C0380
1C0380
1C0380
1C0380
3E07C0
FFFFF0
01F800
006000
006000
006000
006000
ENDCHAR
ENDFONT
